<?xml version="1.0" encoding="UTF-8" standalone="no"?>
<!-- Created with Inkscape (http://www.inkscape.org/) -->

<svg
   width="118.43687mm"
   height="16.022404mm"
   viewBox="0 0 118.43687 16.022404"
   version="1.1"
   id="svg1"
   xml:space="preserve"
   inkscape:version="1.4.3 (0d15f75, 2025-12-25)"
   sodipodi:docname="banner.svg"
   xmlns:inkscape="http://www.inkscape.org/namespaces/inkscape"
   xmlns:sodipodi="http://sodipodi.sourceforge.net/DTD/sodipodi-0.dtd"
   xmlns="http://www.w3.org/2000/svg"
   xmlns:svg="http://www.w3.org/2000/svg"><sodipodi:namedview
     id="namedview1"
     pagecolor="#ffffff"
     bordercolor="#000000"
     borderopacity="0.25"
     inkscape:showpageshadow="2"
     inkscape:pageopacity="0.0"
     inkscape:pagecheckerboard="0"
     inkscape:deskcolor="#d1d1d1"
     inkscape:document-units="mm"
     inkscape:zoom="1.2718876"
     inkscape:cx="297.58919"
     inkscape:cy="-38.525417"
     inkscape:window-width="1920"
     inkscape:window-height="1027"
     inkscape:window-x="0"
     inkscape:window-y="25"
     inkscape:window-maximized="0"
     inkscape:current-layer="layer1" /><defs
     id="defs1" /><g
     inkscape:label="Layer 1"
     inkscape:groupmode="layer"
     id="layer1"
     transform="translate(-199.50552,-216.21602)"><path
       d="m 224.00111,220.05107 c -0.55122,0 -1.06109,0.0988 -1.52962,0.29628 -0.46394,0.19293 -0.86587,0.47313 -1.20579,0.8406 -0.33532,0.36288 -0.59715,0.80385 -0.78548,1.32292 -0.18833,0.51447 -0.2825,1.09094 -0.2825,1.72943 0,0.64309 0.10106,1.22416 0.30317,1.74322 0.20671,0.51447 0.48691,0.95314 0.84061,1.31602 0.35829,0.36289 0.77859,0.64309 1.2609,0.84061 0.48231,0.19293 0.99908,0.28939 1.55029,0.28939 0.39963,0 0.76022,-0.0528 1.08176,-0.15848 0.32154,-0.11024 0.61093,-0.26642 0.86816,-0.46853 v -3.20394 h -1.72943 v -0.54432 h 3.26595 v 4.01698 c -0.26643,0.14239 -0.53515,0.26871 -0.80616,0.37896 -0.27101,0.11024 -0.56499,0.20211 -0.88194,0.2756 -0.31235,0.0735 -0.65686,0.12862 -1.03353,0.16537 -0.37666,0.0413 -0.80385,0.062 -1.28157,0.062 -0.50528,0 -0.9853,-0.0574 -1.44005,-0.17226 -0.45475,-0.11024 -0.87735,-0.26871 -1.2678,-0.47542 -0.38585,-0.20671 -0.73495,-0.45246 -1.0473,-0.73725 -0.31236,-0.28939 -0.57878,-0.60863 -0.79927,-0.95773 -0.21589,-0.34911 -0.38355,-0.72347 -0.50298,-1.1231 -0.11943,-0.39963 -0.17914,-0.81534 -0.17914,-1.24713 0,-0.42719 0.0551,-0.84289 0.16536,-1.24712 0.11484,-0.40882 0.27791,-0.79237 0.4892,-1.15066 0.2113,-0.36289 0.46853,-0.69362 0.7717,-0.99219 0.30317,-0.29857 0.64539,-0.55581 1.02664,-0.7717 0.38126,-0.21589 0.79697,-0.38355 1.24713,-0.50298 0.45015,-0.11943 0.92787,-0.17915 1.43315,-0.17915 0.48231,0 0.92788,0.0666 1.3367,0.19982 0.41341,0.12861 0.78778,0.30087 1.1231,0.51676 0.33991,0.21589 0.64079,0.46624 0.90262,0.75103 0.26183,0.2802 0.4869,0.57418 0.67523,0.88195 l -0.66145,0.44097 c -0.38585,-0.73955 -0.81534,-1.27928 -1.28847,-1.6192 -0.46853,-0.34451 -1.00826,-0.51676 -1.61919,-0.51676 z m 6.17807,1.50206 h 0.21359 l 0.18604,1.44005 c 0.11024,-0.2113 0.24804,-0.40423 0.41341,-0.57878 0.16537,-0.17455 0.34681,-0.32613 0.54432,-0.45475 0.20211,-0.12861 0.41341,-0.22737 0.6339,-0.29628 0.22508,-0.0735 0.45246,-0.11024 0.68213,-0.11024 0.20671,0 0.40882,0.0276 0.60634,0.0827 0.20211,0.0551 0.39044,0.14241 0.56499,0.26183 l -0.44097,1.17822 c -0.0919,-0.10105 -0.18833,-0.18144 -0.28939,-0.24116 -0.10105,-0.0643 -0.20441,-0.11256 -0.31006,-0.14469 -0.10565,-0.0367 -0.21359,-0.0597 -0.32383,-0.0689 -0.11025,-0.009 -0.22049,-0.0138 -0.33073,-0.0138 -0.17455,0 -0.34681,0.0253 -0.51677,0.0758 -0.16536,0.0505 -0.32383,0.12633 -0.47542,0.22738 -0.15159,0.0965 -0.29169,0.22278 -0.4203,0.37896 -0.12862,0.15158 -0.24116,0.33072 -0.33762,0.53743 v 4.9127 h -1.39871 v -6.80061 z m 7.54922,7.33805 c -0.54203,0 -1.04042,-0.0942 -1.49517,-0.2825 -0.45475,-0.18833 -0.8475,-0.44327 -1.17823,-0.76481 -0.33073,-0.32613 -0.59026,-0.70509 -0.77859,-1.13688 -0.18373,-0.43638 -0.2756,-0.90262 -0.2756,-1.39871 0,-0.51906 0.0919,-1.00597 0.2756,-1.46072 0.18833,-0.45935 0.44786,-0.85898 0.77859,-1.19889 0.33073,-0.33991 0.72348,-0.60633 1.17823,-0.79926 0.45475,-0.19752 0.95314,-0.29628 1.49517,-0.29628 0.53743,0 1.03123,0.0896 1.48139,0.26872 0.45475,0.17914 0.84749,0.42489 1.17822,0.73725 0.33073,0.31235 0.58796,0.67983 0.7717,1.10243 0.18833,0.418 0.2825,0.86816 0.2825,1.35047 0,0.53284 -0.0942,1.03582 -0.2825,1.50895 -0.18374,0.46853 -0.44097,0.87965 -0.7717,1.23335 -0.33073,0.3491 -0.72347,0.627 -1.17822,0.83371 -0.45016,0.20211 -0.94396,0.30317 -1.48139,0.30317 z m 0.26871,-0.51677 c 0.27561,0 0.52825,-0.0712 0.75792,-0.21359 0.22967,-0.1424 0.42719,-0.33303 0.59256,-0.57189 0.16537,-0.24345 0.29398,-0.52365 0.38585,-0.8406 0.0919,-0.31695 0.1378,-0.65227 0.1378,-1.00597 0,-0.50987 -0.0436,-0.98759 -0.13091,-1.43316 -0.0873,-0.44556 -0.22967,-0.83371 -0.42719,-1.16444 -0.19752,-0.33073 -0.45475,-0.59026 -0.7717,-0.77859 -0.31695,-0.19293 -0.7028,-0.28939 -1.15755,-0.28939 -0.23427,0 -0.46164,0.0689 -0.68213,0.20671 -0.22049,0.13321 -0.41571,0.31694 -0.58567,0.55121 -0.16536,0.23427 -0.29857,0.50988 -0.39963,0.82683 -0.10105,0.31235 -0.15158,0.64538 -0.15158,0.99907 0,0.51447 0.0528,0.99678 0.15847,1.44694 0.11025,0.45016 0.26872,0.8429 0.47543,1.17822 0.21129,0.33533 0.46623,0.60175 0.76481,0.79927 0.30317,0.19292 0.64767,0.28938 1.03352,0.28938 z m 6.04027,-6.69037 v 5.02295 c 0,0.17455 0.039,0.33992 0.11713,0.49609 0.0827,0.15618 0.19523,0.29169 0.33762,0.40652 0.1424,0.11484 0.30547,0.20671 0.48921,0.27561 0.18833,0.0643 0.39044,0.0965 0.60633,0.0965 0.13781,0 0.2848,-0.0299 0.44098,-0.0896 0.16077,-0.0597 0.31694,-0.14012 0.46853,-0.24116 0.15158,-0.10565 0.29168,-0.22737 0.4203,-0.36518 0.13321,-0.14239 0.24575,-0.29168 0.33762,-0.44786 v -5.15386 h 1.39182 v 7.05555 h -1.39182 v -1.32291 c -0.12403,0.20211 -0.2802,0.39274 -0.46853,0.57188 -0.18374,0.17915 -0.38356,0.33533 -0.59945,0.46854 -0.21589,0.13321 -0.43868,0.23885 -0.66835,0.31694 -0.22967,0.0781 -0.44786,0.11714 -0.65457,0.11714 -0.30776,0 -0.59715,-0.0574 -0.86816,-0.17226 -0.27101,-0.11483 -0.50758,-0.27101 -0.70969,-0.46853 -0.20211,-0.19752 -0.36288,-0.42949 -0.48231,-0.69591 -0.11484,-0.26642 -0.17226,-0.54892 -0.17226,-0.84749 v -5.02295 z m 7.29428,-0.13091 h 0.39963 v 1.58474 c 0.1424,-0.17914 0.29858,-0.36288 0.46853,-0.55121 0.17455,-0.18833 0.36518,-0.35829 0.57189,-0.50988 0.2113,-0.15617 0.44327,-0.28249 0.69591,-0.37896 0.25264,-0.0965 0.52825,-0.14469 0.82682,-0.14469 0.41801,0 0.79697,0.0873 1.13688,0.26183 0.33992,0.17455 0.62931,0.41111 0.86817,0.70969 0.24345,0.29857 0.42948,0.64997 0.5581,1.05419 0.13321,0.39963 0.19982,0.82683 0.19982,1.28158 0,0.58337 -0.0804,1.1231 -0.24116,1.61919 -0.16077,0.4915 -0.39045,0.9164 -0.68902,1.27469 -0.29857,0.35829 -0.66146,0.63849 -1.08865,0.8406 -0.42719,0.19752 -0.90491,0.29628 -1.43316,0.29628 -0.19293,0 -0.37437,-0.0115 -0.54432,-0.0344 -0.16537,-0.0184 -0.32384,-0.0483 -0.47543,-0.0896 -0.14699,-0.0413 -0.29168,-0.0942 -0.43408,-0.15847 -0.1378,-0.0643 -0.2779,-0.14242 -0.4203,-0.23427 v 3.33485 h -1.4056 v -9.76339 z m 0.39963,5.28477 c 0,0.2113 0.0459,0.41112 0.13781,0.59945 0.0919,0.18374 0.22048,0.34681 0.38585,0.4892 0.16536,0.13781 0.36288,0.24805 0.59255,0.33073 0.22967,0.0781 0.48231,0.11713 0.75792,0.11713 0.26183,0 0.50758,-0.0666 0.73725,-0.19981 0.23427,-0.13321 0.43638,-0.32155 0.60634,-0.565 0.17455,-0.24805 0.31006,-0.54203 0.40652,-0.88194 0.10105,-0.33991 0.15158,-0.71658 0.15158,-1.12999 0,-0.51906 -0.0459,-0.97152 -0.1378,-1.35737 -0.0919,-0.39044 -0.22048,-0.71428 -0.38585,-0.97151 -0.16077,-0.25723 -0.3537,-0.45016 -0.57878,-0.57878 -0.22048,-0.12861 -0.46393,-0.19292 -0.73036,-0.19292 -0.20211,0 -0.39733,0.0322 -0.58566,0.0965 -0.18374,0.0597 -0.35829,0.14241 -0.52366,0.24804 -0.16536,0.10565 -0.31924,0.22738 -0.46164,0.36518 -0.1378,0.13781 -0.26182,0.2825 -0.37207,0.43409 z m 14.51966,-7.23469 v 0.59255 H 261.793 v 3.26595 h 3.22461 v 0.59256 H 261.793 v 4.68532 h -1.53651 v -9.13638 z m 1.91994,2.08083 v 5.02295 c 0,0.17455 0.039,0.33992 0.11713,0.49609 0.0827,0.15618 0.19523,0.29169 0.33762,0.40652 0.1424,0.11484 0.30547,0.20671 0.48921,0.27561 0.18833,0.0643 0.39044,0.0965 0.60633,0.0965 0.13781,0 0.2848,-0.0299 0.44097,-0.0896 0.16077,-0.0597 0.31695,-0.14012 0.46854,-0.24116 0.15158,-0.10565 0.29168,-0.22737 0.4203,-0.36518 0.13321,-0.14239 0.24575,-0.29168 0.33762,-0.44786 v -5.15386 h 1.39181 v 7.05555 h -1.39181 v -1.32291 c -0.12403,0.20211 -0.28021,0.39274 -0.46854,0.57188 -0.18373,0.17915 -0.38355,0.33533 -0.59944,0.46854 -0.21589,0.13321 -0.43868,0.23885 -0.66835,0.31694 -0.22967,0.0781 -0.44786,0.11714 -0.65457,0.11714 -0.30776,0 -0.59715,-0.0574 -0.86816,-0.17226 -0.27101,-0.11483 -0.50758,-0.27101 -0.70969,-0.46853 -0.20211,-0.19752 -0.36288,-0.42949 -0.48231,-0.69591 -0.11484,-0.26642 -0.17226,-0.54892 -0.17226,-0.84749 v -5.02295 z m 7.29428,-0.13091 h 0.39963 v 1.42627 c 0.42719,-0.47772 0.87046,-0.83371 1.32981,-1.06798 0.45935,-0.23886 0.92558,-0.35829 1.39871,-0.35829 0.24805,0 0.47772,0.0551 0.68901,0.16536 0.21589,0.11025 0.40423,0.26183 0.565,0.45476 0.16077,0.19292 0.28709,0.42029 0.37896,0.68212 0.0919,0.25724 0.1378,0.53285 0.1378,0.82683 v 5.05739 h -1.3987 v -4.81624 c 0,-0.23427 -0.0276,-0.43867 -0.0827,-0.61322 -0.0551,-0.17915 -0.13322,-0.32843 -0.23426,-0.44786 -0.10106,-0.11943 -0.22049,-0.20901 -0.35829,-0.26872 -0.13321,-0.0643 -0.2825,-0.0965 -0.44786,-0.0965 -0.14699,0 -0.30317,0.0253 -0.46854,0.0758 -0.16536,0.0505 -0.33532,0.12173 -0.50987,0.21359 -0.16996,0.0873 -0.33992,0.19293 -0.50987,0.31695 -0.16996,0.12403 -0.33303,0.26183 -0.48921,0.41341 v 5.22276 h -1.4056 v -6.79372 z m 11.20791,2.11529 c -0.0505,-0.18374 -0.11944,-0.36978 -0.20671,-0.55811 -0.0873,-0.18833 -0.19981,-0.35829 -0.33762,-0.50987 -0.13321,-0.15618 -0.29168,-0.2825 -0.47542,-0.37896 -0.18374,-0.0965 -0.39963,-0.1447 -0.64768,-0.1447 -0.31695,0 -0.60174,0.0643 -0.85438,0.19293 -0.25264,0.12861 -0.46624,0.30316 -0.64079,0.52365 -0.17455,0.22049 -0.30776,0.47772 -0.39963,0.7717 -0.0919,0.29399 -0.1378,0.60634 -0.1378,0.93707 0,0.45016 0.0574,0.87735 0.17225,1.28157 0.11943,0.39963 0.2848,0.75103 0.4961,1.0542 0.21589,0.30317 0.47312,0.54432 0.7717,0.72347 0.30317,0.17455 0.64078,0.26183 1.01285,0.26183 0.32614,0 0.60864,-0.0505 0.8475,-0.15159 0.24345,-0.10565 0.45245,-0.24575 0.627,-0.4203 0.17915,-0.17455 0.33303,-0.37666 0.46165,-0.60633 0.12861,-0.23427 0.24345,-0.48002 0.34451,-0.73725 l 0.4203,0.17225 c -0.11943,0.44097 -0.28021,0.83601 -0.48232,1.18511 -0.20211,0.34911 -0.44097,0.64539 -0.71658,0.88884 -0.27101,0.23886 -0.57877,0.4226 -0.92328,0.55121 -0.33991,0.12403 -0.70969,0.18604 -1.10932,0.18604 -0.46394,0 -0.89802,-0.0896 -1.30225,-0.26872 -0.40422,-0.18374 -0.75562,-0.43408 -1.05419,-0.75103 -0.29858,-0.31695 -0.53514,-0.68672 -0.70969,-1.10932 -0.17455,-0.4226 -0.26183,-0.87506 -0.26183,-1.35737 0,-0.35369 0.0436,-0.69361 0.13091,-1.01974 0.0873,-0.33073 0.20901,-0.6385 0.36518,-0.92329 0.16077,-0.28479 0.3514,-0.54432 0.57189,-0.77859 0.22508,-0.23427 0.47313,-0.43408 0.74414,-0.59945 0.27101,-0.16995 0.5604,-0.30087 0.86816,-0.39274 0.31235,-0.0919 0.63619,-0.1378 0.97152,-0.1378 0.2802,0 0.54892,0.0322 0.80615,0.0965 0.25723,0.0643 0.4938,0.1562 0.70969,0.27561 0.21589,0.11483 0.40652,0.25953 0.57188,0.43408 0.16537,0.16996 0.29398,0.36059 0.38585,0.57189 z m 4.1179,-4.38216 h 0.39963 v 2.39778 h 1.57097 v 0.59945 h -1.57097 v 4.96782 c 0,0.10565 0.0184,0.20441 0.0551,0.29628 0.0413,0.0919 0.0942,0.17226 0.15848,0.24116 0.0689,0.0689 0.14929,0.12402 0.24116,0.16536 0.0919,0.0367 0.19292,0.0551 0.30316,0.0551 0.15618,0 0.29858,-0.039 0.42719,-0.11713 0.12862,-0.0781 0.24116,-0.17455 0.33762,-0.28939 l 0.3514,0.23427 c -0.19292,0.32613 -0.44326,0.58337 -0.75103,0.7717 -0.30776,0.18833 -0.68902,0.2825 -1.14377,0.2825 -0.23427,0 -0.43867,-0.0413 -0.61322,-0.12403 -0.17455,-0.0781 -0.31925,-0.18833 -0.43409,-0.33072 -0.11024,-0.14699 -0.19292,-0.31925 -0.24804,-0.51677 -0.0551,-0.20211 -0.0827,-0.4249 -0.0827,-0.66835 v -4.96782 h -1.22646 v -0.26183 l 1.22646,-0.33762 V 219.679 Z m 3.42889,2.6665 0.9853,-0.39963 h 0.40652 v 7.18646 h -1.39182 z m 6.41923,6.93842 c -0.54203,0 -1.04042,-0.0942 -1.49517,-0.2825 -0.45475,-0.18833 -0.84749,-0.44327 -1.17822,-0.76481 -0.33073,-0.32613 -0.59026,-0.70509 -0.77859,-1.13688 -0.18374,-0.43638 -0.27561,-0.90262 -0.27561,-1.39871 0,-0.51906 0.0919,-1.00597 0.27561,-1.46072 0.18833,-0.45935 0.44786,-0.85898 0.77859,-1.19889 0.33073,-0.33991 0.72347,-0.60633 1.17822,-0.79926 0.45475,-0.19752 0.95314,-0.29628 1.49517,-0.29628 0.53743,0 1.03123,0.0896 1.48139,0.26872 0.45475,0.17914 0.84749,0.42489 1.17822,0.73725 0.33073,0.31235 0.58796,0.67983 0.7717,1.10243 0.18833,0.418 0.2825,0.86816 0.2825,1.35047 0,0.53284 -0.0942,1.03582 -0.2825,1.50895 -0.18374,0.46853 -0.44097,0.87965 -0.7717,1.23335 -0.33073,0.3491 -0.72347,0.627 -1.17822,0.83371 -0.45016,0.20211 -0.94396,0.30317 -1.48139,0.30317 z m 0.26872,-0.51677 c 0.27561,0 0.52825,-0.0712 0.75792,-0.21359 0.22967,-0.1424 0.42719,-0.33303 0.59255,-0.57189 0.16537,-0.24345 0.29398,-0.52365 0.38585,-0.8406 0.0919,-0.31695 0.13781,-0.65227 0.13781,-1.00597 0,-0.50987 -0.0436,-0.98759 -0.13092,-1.43316 -0.0873,-0.44556 -0.22967,-0.83371 -0.42719,-1.16444 -0.19752,-0.33073 -0.45475,-0.59026 -0.7717,-0.77859 -0.31695,-0.19293 -0.7028,-0.28939 -1.15755,-0.28939 -0.23427,0 -0.46164,0.0689 -0.68213,0.20671 -0.22049,0.13321 -0.41571,0.31694 -0.58566,0.55121 -0.16537,0.23427 -0.29858,0.50988 -0.39964,0.82683 -0.10105,0.31235 -0.15158,0.64538 -0.15158,0.99907 0,0.51447 0.0528,0.99678 0.15848,1.44694 0.11024,0.45016 0.26871,0.8429 0.47542,1.17822 0.2113,0.33533 0.46624,0.60175 0.76481,0.79927 0.30317,0.19292 0.64768,0.28938 1.03353,0.28938 z m 5.64063,-6.82128 h 0.39963 v 1.42627 c 0.42719,-0.47772 0.87045,-0.83371 1.3298,-1.06798 0.45935,-0.23886 0.92558,-0.35829 1.39871,-0.35829 0.24805,0 0.47772,0.0551 0.68902,0.16536 0.21589,0.11025 0.40422,0.26183 0.56499,0.45476 0.16077,0.19292 0.28709,0.42029 0.37896,0.68212 0.0919,0.25724 0.13781,0.53285 0.13781,0.82683 v 5.05739 h -1.39871 v -4.81624 c 0,-0.23427 -0.0276,-0.43867 -0.0827,-0.61322 -0.0551,-0.17915 -0.13322,-0.32843 -0.23427,-0.44786 -0.10105,-0.11943 -0.22048,-0.20901 -0.35829,-0.26872 -0.13321,-0.0643 -0.28249,-0.0965 -0.44786,-0.0965 -0.14699,0 -0.30317,0.0253 -0.46853,0.0758 -0.16537,0.0505 -0.33533,0.12173 -0.50988,0.21359 -0.16995,0.0873 -0.33991,0.19293 -0.50987,0.31695 -0.16996,0.12403 -0.33303,0.26183 -0.4892,0.41341 v 5.22276 h -1.4056 v -6.79372 z m 8.70677,6.84884 c 0.18833,0 0.36288,-0.0276 0.52365,-0.0827 0.16077,-0.0597 0.29858,-0.13782 0.41341,-0.23426 0.11943,-0.0965 0.2113,-0.20671 0.27561,-0.33073 0.0643,-0.12862 0.0965,-0.25953 0.0965,-0.39274 0,-0.21589 -0.0551,-0.40423 -0.16536,-0.565 -0.10565,-0.16077 -0.24805,-0.30317 -0.42719,-0.42719 -0.17455,-0.12862 -0.37437,-0.24575 -0.59945,-0.3514 -0.22508,-0.10565 -0.45475,-0.21359 -0.68902,-0.32384 -0.23427,-0.11483 -0.46394,-0.23426 -0.68902,-0.35829 -0.22507,-0.12861 -0.42718,-0.2779 -0.60633,-0.44786 -0.17455,-0.16996 -0.31695,-0.36518 -0.42719,-0.58567 -0.10565,-0.22508 -0.15848,-0.48691 -0.15848,-0.78548 0,-0.2802 0.0597,-0.53973 0.17915,-0.77859 0.11943,-0.24345 0.28479,-0.45246 0.49609,-0.62701 0.21589,-0.17455 0.47083,-0.31005 0.76481,-0.40652 0.29398,-0.10105 0.61552,-0.15158 0.96463,-0.15158 0.23427,0 0.45245,0.0161 0.65456,0.0482 0.20211,0.0321 0.39963,0.0941 0.59256,0.18604 0.19752,0.0919 0.39274,0.22508 0.58567,0.39963 0.19292,0.16995 0.39733,0.39273 0.61322,0.66834 l -0.51676,0.46165 c -0.26642,-0.43638 -0.565,-0.76022 -0.89573,-0.97152 -0.32613,-0.21589 -0.67523,-0.32384 -1.0473,-0.32384 -0.20211,0 -0.38585,0.0253 -0.55122,0.0758 -0.16536,0.0459 -0.30776,0.11254 -0.42719,0.19982 -0.11483,0.0827 -0.2067,0.18144 -0.27561,0.29628 -0.0643,0.11483 -0.0965,0.23656 -0.0965,0.36518 0,0.2113 0.0574,0.39504 0.17226,0.55121 0.11943,0.15618 0.2756,0.29858 0.46853,0.42719 0.19293,0.12403 0.41112,0.23886 0.65457,0.34451 0.24805,0.10565 0.49839,0.2136 0.75103,0.32384 0.25723,0.11025 0.50758,0.22968 0.75103,0.35829 0.24805,0.12862 0.46853,0.27791 0.66145,0.44786 0.19293,0.16537 0.34681,0.35829 0.46165,0.57878 0.11943,0.22049 0.17914,0.47772 0.17914,0.7717 0,0.29857 -0.0551,0.57877 -0.16536,0.8406 -0.11025,0.25723 -0.27791,0.48231 -0.50299,0.67524 -0.22049,0.18833 -0.49839,0.33762 -0.83371,0.44786 -0.33532,0.11025 -0.73036,0.16537 -1.18511,0.16537 -0.20671,0 -0.4203,-0.0161 -0.64079,-0.0482 -0.21589,-0.0321 -0.43408,-0.0941 -0.65457,-0.18604 -0.22049,-0.0965 -0.44097,-0.22967 -0.66145,-0.39963 -0.22049,-0.16996 -0.43638,-0.39274 -0.64768,-0.66835 l 0.57188,-0.51676 c 0.16996,0.23886 0.33303,0.44327 0.48921,0.61323 0.15617,0.16536 0.31465,0.30316 0.47542,0.41341 0.16537,0.10565 0.33303,0.18373 0.50298,0.23426 0.17455,0.0459 0.36289,0.0689 0.565,0.0689 z"
       id="text20"
       style="font-size:14.1111px;font-family:'Tamil MN';-inkscape-font-specification:'Tamil MN';text-align:justify;letter-spacing:-0.801687px;stroke-width:0.12"
       aria-label="Group Functions"
       sodipodi:nodetypes="scccscccscccccccsccsccccssccssssccccccsscccsccscccccssccccccccssccscscscscscccssscsssscscccscccscscscsccccccccccssssscscccccccsssccscscsccccccccscccscccscccscsccsccccccccccccscscsccccccccccssssscsccccccscscsccscscsscsccccccscsssssscccscccccsccscssscccccssccccccccccscccssccsscccsccccccccccccssccscscscscscccssscsssscscccscccsccccscscsccscscsscscccccscccsccsccccscccsscccccscccscccccccsccssccscccccss" /><path
       style="font-variation-settings:'wght' 900;fill:#4063d8;fill-opacity:1;stroke-width:0.587172"
       id="path20"
       sodipodi:type="arc"
       sodipodi:cx="294.88428"
       sodipodi:cy="220.15567"
       sodipodi:rx="0.87121516"
       sodipodi:ry="0.87121516"
       sodipodi:start="4.7076426"
       sodipodi:end="4.6747925"
       sodipodi:open="true"
       sodipodi:arc-type="chord"
       d="m 294.88014,219.28446 a 0.87121516,0.87121516 0 0 1 0.87528,0.85992 0.87121516,0.87121516 0 0 1 -0.8527,0.88231 0.87121516,0.87121516 0 0 1 -0.88928,-0.84542 0.87121516,0.87121516 0 0 1 0.83809,-0.8962 z" /><g
       id="g23"
       transform="translate(120.54815,120.55838)"><rect
         style="fill:#cb3c33;fill-opacity:1;stroke:none;stroke-width:0.0353177"
         id="rect21"
         width="7.6995654"
         height="7.6995654"
         x="78.957367"
         y="103.98048" /><rect
         style="fill:#389826;fill-opacity:1;stroke:none;stroke-width:0.0353177"
         id="rect22"
         width="7.6995654"
         height="7.6995654"
         x="78.957367"
         y="95.657639" /><rect
         style="fill:#9558b2;fill-opacity:1;stroke:none;stroke-width:0.0353177"
         id="rect23"
         width="7.6995654"
         height="7.6995654"
         x="87.280182"
         y="95.657639" /></g></g></svg>
